<svg width="39" height="36" viewBox="0 0 39 36" xmlns="http://www.w3.org/2000/svg"><title>logo</title><desc>Created with Sketch.</desc><defs><linearGradient x1="50%" y1="0%" x2="50%" y2="100%" id="a"><stop stop-color="#f80" offset="0%"/><stop stop-color="#f60" offset="100%"/></linearGradient></defs><path d="M30.868.405c-.228-.387-.732-.519-1.126-.296l-13.494 7.646c-.307.174-.467.522-.395.863l4.541 21.781c.022.105-.023.26-.092.336l-.552.611c-1.147 1.27-2.119 1.958-3.966 1.958-2.071 0-3.043-1.071-4.583-2.965-1.839-2.261-4.127-5.076-9.69-5.076h-.138c-.759 0-1.374.604-1.374 1.348 0 .745.615 1.348 1.374 1.348h.138c4.24 0 5.844 1.973 7.542 4.061 1.517 1.866 3.236 3.98 6.731 3.98 3.017 0 4.677-1.377 6.022-2.865l4.96-5.489 11.796-13.056c.235-.26.275-.64.097-.941l-7.791-13.244z" fill="url(#a)"/></svg>