<svg width="42" height="42" viewBox="0 0 42 42" xmlns="http://www.w3.org/2000/svg"><title>Icon</title><desc>Created with Sketch.</desc><defs><radialGradient cy="50.876%" fx="50%" fy="50.876%" r="79.847%" id="a"><stop stop-color="#0AD4FA" offset="0%"/><stop stop-color="#25BBF1" offset="100%"/></radialGradient></defs><g transform="translate(0 0)" fill="none"><circle fill="url(#a)" cx="21" cy="21" r="21"/><path d="M29.995 29.108l-1.112-13.577c-.024-.305-.288-.541-.605-.541h-3.032v-1.06c0-1.615-1.36-2.93-3.032-2.93h-2.426c-1.672 0-3.032 1.314-3.032 2.93v1.06h-3.032c-.317 0-.581.236-.605.541l-1.112 13.577c-.039.487.136.971.479 1.329.343.358.83.563 1.335.563h14.361c.505 0 .992-.205 1.335-.563.343-.358.518-.843.479-1.329zm-11.995-14.858c0-1.241.807-2.25 1.8-2.25h2.4c.993 0 1.8 1.009 1.8 2.25v.75h-6v-.75z" fill="#fff" fill-rule="nonzero"/></g></svg>