<svg width="50" height="50" viewBox="0 0 50 50" xmlns="http://www.w3.org/2000/svg"><title>icon-white</title><desc>Created with Sketch.</desc><defs><filter x="-9.1%" y="-9.1%" width="128.3%" height="128.3%" filterUnits="objectBoundingBox" id="a"><feOffset dx="2" dy="2" in="SourceAlpha" result="shadowOffsetOuter1"/><feGaussianBlur stdDeviation="2" in="shadowOffsetOuter1" result="shadowBlurOuter1"/><feColorMatrix values="0 0 0 0 0 0 0 0 0 0 0 0 0 0 0 0 0 0 0.1 0" in="shadowBlurOuter1" result="shadowMatrixOuter1"/><feMerge><feMergeNode in="shadowMatrixOuter1"/><feMergeNode in="SourceGraphic"/></feMerge></filter></defs><g transform="translate(2 2)" filter="url(#a)" fill="none"><circle fill="#fff" cx="21" cy="21" r="21"/><path d="M29.995 29.108l-1.112-13.577c-.024-.305-.288-.541-.605-.541h-3.032v-1.06c0-1.615-1.36-2.93-3.032-2.93h-2.426c-1.672 0-3.032 1.314-3.032 2.93v1.06h-3.032c-.317 0-.581.236-.605.541l-1.112 13.577c-.039.487.136.971.479 1.329.343.358.83.563 1.335.563h14.361c.505 0 .992-.205 1.335-.563.343-.358.518-.843.479-1.329zm-11.995-14.858c0-1.241.807-2.25 1.8-2.25h2.4c.993 0 1.8 1.009 1.8 2.25v.75h-6v-.75z" fill="#0AD4FA" fill-rule="nonzero"/></g></svg>