<svg width="34" height="34" viewBox="0 0 34 34" xmlns="http://www.w3.org/2000/svg"><title>money</title><desc>Created with Sketch.</desc><defs><filter x="-9.1%" y="-9.1%" width="128.3%" height="128.3%" filterUnits="objectBoundingBox" id="a"><feOffset dx="2" dy="2" in="SourceAlpha" result="shadowOffsetOuter1"/><feGaussianBlur stdDeviation="2" in="shadowOffsetOuter1" result="shadowBlurOuter1"/><feColorMatrix values="0 0 0 0 0 0 0 0 0 0 0 0 0 0 0 0 0 0 0.1 0" in="shadowBlurOuter1" result="shadowMatrixOuter1"/><feMerge><feMergeNode in="shadowMatrixOuter1"/><feMergeNode in="SourceGraphic"/></feMerge></filter><radialGradient fx="50%" fy="50%" r="68.628%" id="b"><stop stop-color="#FFCF00" offset="0%"/><stop stop-color="#F7AE15" offset="100%"/></radialGradient></defs><g transform="translate(2 2)" filter="url(#a)" fill="none"><circle fill="url(#b)" cx="13" cy="13" r="13"/><path d="M13 3.095c-5.454 0-9.905 4.451-9.905 9.905s4.451 9.905 9.905 9.905 9.905-4.451 9.905-9.905-4.451-9.905-9.905-9.905zm0 18.649c-4.821 0-8.744-3.923-8.744-8.744s3.923-8.744 8.744-8.744 8.744 3.923 8.744 8.744-3.923 8.744-8.744 8.744zM13 5.296c-4.232 0-7.704 3.473-7.704 7.704 0 4.232 3.473 7.704 7.704 7.704 4.232 0 7.704-3.473 7.704-7.704 0-4.232-3.473-7.704-7.704-7.704zm0 14.228c-3.598 0-6.525-2.927-6.525-6.525 0-3.598 2.927-6.525 6.525-6.525 3.598 0 6.525 2.927 6.525 6.525 0 3.598-2.927 6.525-6.525 6.525z" fill="#F8B013" fill-rule="nonzero"/></g></svg>