
<svg width="101px" height="117px" viewBox="0 0 101 117" version="1.1" xmlns="http://www.w3.org/2000/svg" xmlns:xlink="http://www.w3.org/1999/xlink">
    <!-- Generator: Sketch 48 (47235) - http://www.bohemiancoding.com/sketch -->
    <desc>Created with Sketch.</desc>
    <defs></defs>
    <g id="Page-1" stroke="none" stroke-width="1" fill="none" fill-rule="evenodd">
        <g id="pig" fill-rule="nonzero">
            <g id="piggy-bank">
                <path d="M95.2883468,33.6897926 L94.8596124,36.7780107 C94.0227551,42.8132359 89.0984899,45.3447971 86.9486326,51.0505303 L85.7943468,54.1141902 C82.8715307,47.0127212 77.8462652,40.9938681 71.4770816,36.8168946 C78.0400202,33.464674 83.5764693,29.7195189 91.2215509,28.974581 L92.6788367,28.8333702 C86.6188367,18.776708 77.6298367,13.7934006 67.0516326,11.5913313 C67.67,13.3697683 68.0204082,15.2689507 68.0204082,17.2540876 C68.0204082,18.7132655 67.8122243,20.1212801 67.4618165,21.4699452 C62.2902041,18.7173585 56.0611835,17.1435748 49.6198573,17.1435748 C49.6074899,17.1435748 49.5951225,17.1435748 49.5848165,17.1435748 C43.6443674,17.1476679 38.1141019,18.4206113 33.3712245,20.804822 C33.1259388,19.6587636 32.9795918,18.4758677 32.9795918,17.2540876 C32.9795918,15.2689507 33.33,13.3697683 33.9483673,11.5913313 C23.368102,13.7934006 14.3811633,18.776708 8.32116326,28.8333702 L9.77844899,28.974581 C17.4235306,29.7174724 22.9599796,33.4626275 29.5229184,36.8168946 C23.1537347,40.9938681 18.1284694,47.0127212 15.2056531,54.1141902 L14.0513673,51.0505303 C11.9015102,45.3447971 6.97724491,42.8132359 6.14038775,36.7780107 L5.71165307,33.6897926 C2.06946939,41.32336 0,49.9986127 0,59.2080101 C0,76.4602821 7.22871427,91.8624877 18.5510204,101.994872 L18.5510204,89.0485051 C23.3474898,96.3566739 30.5988776,101.931429 39.1632652,104.577596 L39.1632652,113.050242 C42.8095715,113.965042 46.6001633,114.464396 50.5,114.464396 C54.3998367,114.464396 58.1904285,113.965042 61.8367348,113.048196 L61.8367348,104.57555 C70.4011225,101.931429 77.6525101,96.3546274 82.4489798,89.0464589 L82.4489798,101.992825 C93.7712858,91.8624877 101,76.4602821 101,59.2080101 C101,49.9986127 98.9305307,41.32336 95.2883468,33.6897926 Z" id="Shape" fill="#FFAEC9"></path>
                <ellipse id="Oval" fill="#F9C7DB" cx="50.5" cy="68.4613003" rx="38.147482" ry="38.0340557"></ellipse>
                <path d="M61.7625899,105.037559 L61.7625899,116.36813 C61.7625899,116.71689 62.0483691,117 62.4004158,117 L77.9318906,117 C80.4397061,117 82.471223,114.987454 82.471223,112.505109 L82.471223,89.4705882 C77.6523241,96.7965834 70.367027,102.384937 61.7625899,105.037559 Z" id="Shape" fill="#E584A4"></path>
                <path d="M18.528777,89.4705882 L18.528777,112.868229 C18.528777,115.149525 20.3966957,117 22.6994957,117 L38.5705921,117 C38.9392058,117 39.2374101,116.70458 39.2374101,116.339409 L39.2374101,105.037559 C30.632973,102.384937 23.3476759,96.7965834 18.528777,89.4705882 Z" id="Shape" fill="#E584A4"></path>
                <path d="M91.1676562,29.4449613 C83.5801729,30.191163 78.0854357,33.9530068 71.5719424,37.3222208 C77.8931404,41.5178075 82.8805451,47.5634808 85.7813411,54.6965944 L86.9269303,51.6192829 C89.0605902,45.8881241 93.947756,43.3452823 94.7783081,37.2831635 L95.9136691,28.9783282 L91.1676562,29.4449613 Z" id="Shape" fill="#E584A4"></path>
                <path d="M15.218659,54.6965944 C18.1194548,47.5634808 23.1068595,41.5178075 29.4280576,37.3222208 C22.9145642,33.9550625 17.419827,30.1932187 9.83234368,29.4449613 L5.08633094,28.9783282 L6.22373746,37.2831635 C7.05428967,43.3452823 11.9414554,45.8881241 14.0751154,51.6192829 L15.218659,54.6965944 Z" id="Shape" fill="#E584A4"></path>
                <ellipse id="nose" fill="#E584A4" cx="51.7715827" cy="82.0448916" rx="16.5305755" ry="16.4814241"></ellipse>
                <path d="M43.2078621,54.5154799 C43.2078621,56.2089009 41.824043,57.5944272 40.1327082,57.5944272 C38.4413735,57.5944272 37.057554,56.2089009 37.057554,54.5154799 C37.057554,52.8220588 38.4413735,51.4365325 40.1327082,51.4365325 C41.824043,51.4365325 43.2078621,52.8220588 43.2078621,54.5154799 Z M62.6838385,51.4365325 C60.9925038,51.4365325 59.6086846,52.8220588 59.6086846,54.5154799 C59.6086846,56.2089009 60.9925038,57.5944272 62.6838385,57.5944272 C64.3751733,57.5944272 65.7589928,56.2089009 65.7589928,54.5154799 C65.7589928,52.8220588 64.3751733,51.4365325 62.6838385,51.4365325 Z" id="eyes" fill="#556080"></path>
                <path d="M49.5008993,80.9582043 C49.5008993,82.6516254 48.0908049,84.0371517 46.3673561,84.0371517 C44.6439074,84.0371517 43.2338129,82.6516254 43.2338129,80.9582043 C43.2338129,79.2647833 44.6439074,77.879257 46.3673561,77.879257 C48.0908049,77.879257 49.5008993,79.2647833 49.5008993,80.9582043 Z M56.8125,77.879257 C55.0890513,77.879257 53.6789568,79.2647833 53.6789568,80.9582043 C53.6789568,82.6516254 55.0890513,84.0371517 56.8125,84.0371517 C58.5359487,84.0371517 59.9460432,82.6516254 59.9460432,80.9582043 C59.9460432,79.2647833 58.5359487,77.879257 56.8125,77.879257 Z" id="nostrils" fill="#FFAEC9"></path>
                <path d="M34.0168043,23.3056576 C33.4073422,21.5220085 33.0611511,19.6180667 33.0611511,17.6290905 C33.0611511,7.89368453 40.9509906,0 50.6816547,0 C60.4123187,0 68.3021583,7.89368453 68.3021583,17.6290905 C68.3021583,19.8462079 67.8668283,21.9554767 67.1143289,23.9071207 C62.9807662,21.617413 58.092631,20.1427914 52.93086,19.7196932 C51.2931897,19.5413283 49.6451545,19.5247363 48.0033381,19.6553989 C44.3755874,19.8254678 40.8950195,20.4787811 37.6507742,21.6671892 C36.3738058,22.1338416 35.1776845,22.6979725 34.0168043,23.3056576 Z" id="coin" fill="#F4BF19"></path>
            </g>
        </g>
        <g id="right" transform="translate(58.000000, 57.000000)" stroke="#00FDFE" stroke-linecap="round" stroke-linejoin="round" stroke-width="3">
            <polyline id="curve_r" points="0.700000763 2 5.21314956 0.637226047 10.2131496 2"></polyline>
            <path d="M4.5,2.5 L4.5,14.5" id="stream_r"></path>
            <path d="M4.5,13.5 L4.5,15.5" id="tear_r"></path>
        </g>
        <g id="left" transform="translate(35.000000, 57.000000)" stroke="#00FDFE" stroke-linecap="round" stroke-linejoin="round" stroke-width="3">
            <polyline id="curve_l" points="0.700000763 2 5.21314956 0.637226047 10.2131496 2"></polyline>
            <path d="M5.5,2.5 L5.5,7.5" id="stream_l"></path>
            <path d="M5.5,4.5 L5.5,6.5" id="tear_l"></path>
        </g>
    </g>
</svg>